<svg width="185" height="105" viewBox="0 0 185 105" fill="none" xmlns="http://www.w3.org/2000/svg">
<path d="M55 30C55 43.8071 43.8071 55 30 55C16.1929 55 5 43.8071 5 30C5 16.1929 16.1929 5 30 5C43.8071 5 55 16.1929 55 30Z" fill="#FFBB33"/>
<path fill-rule="evenodd" clip-rule="evenodd" d="M30 58C45.464 58 58 45.464 58 30C58 14.536 45.464 2 30 2C14.536 2 2 14.536 2 30C2 45.464 14.536 58 30 58ZM30 60C46.5685 60 60 46.5685 60 30C60 13.4315 46.5685 0 30 0C13.4315 0 0 13.4315 0 30C0 46.5685 13.4315 60 30 60Z" fill="#0066F9"/>
<path d="M40 90C40 95.5229 35.5228 100 30 100C24.4772 100 20 95.5229 20 90C20 84.4771 24.4772 80 30 80C35.5228 80 40 84.4771 40 90Z" fill="#0066F9"/>
<path fill-rule="evenodd" clip-rule="evenodd" d="M30 103C37.1797 103 43 97.1797 43 90C43 82.8203 37.1797 77 30 77C22.8203 77 17 82.8203 17 90C17 97.1797 22.8203 103 30 103ZM30 105C38.2843 105 45 98.2843 45 90C45 81.7157 38.2843 75 30 75C21.7157 75 15 81.7157 15 90C15 98.2843 21.7157 105 30 105Z" fill="#FFBB33"/>
<path d="M20 64.5C20 65.8807 18.8807 67 17.5 67C16.1193 67 15 65.8807 15 64.5C15 63.1193 16.1193 62 17.5 62C18.8807 62 20 63.1193 20 64.5Z" fill="#FFBB33"/>
<path d="M45 64.5C45 65.8807 43.8807 67 42.5 67C41.1193 67 40 65.8807 40 64.5C40 63.1193 41.1193 62 42.5 62C43.8807 62 45 63.1193 45 64.5Z" fill="#FFBB33"/>
<path d="M32 69.5C32 70.8807 30.8807 72 29.5 72C28.1193 72 27 70.8807 27 69.5C27 68.1193 28.1193 67 29.5 67C30.8807 67 32 68.1193 32 69.5Z" fill="#FFBB33"/>
<path d="M72 69.5V34.2H76.9L92.6 57.15C93.9 59.05 95.55 62.25 95.55 62.25H95.65C95.65 62.25 95.3 59.1 95.3 57.15V34.2H100.25V69.5H95.4L79.65 46.6C78.35 44.65 76.7 41.45 76.7 41.45H76.6C76.6 41.45 76.95 44.6 76.95 46.6V69.5H72Z" fill="black"/>
<path d="M106.992 56.8C106.992 49.15 113.092 43.6 120.642 43.6C128.192 43.6 134.292 49.15 134.292 56.8C134.292 64.5 128.192 70.1 120.642 70.1C113.092 70.1 106.992 64.5 106.992 56.8ZM111.942 56.8C111.942 62.1 115.892 65.9 120.642 65.9C125.442 65.9 129.342 62.1 129.342 56.8C129.342 51.55 125.442 47.8 120.642 47.8C115.892 47.8 111.942 51.55 111.942 56.8Z" fill="black"/>
<path d="M146.043 69.5L136.593 44.2H141.743L147.893 61.3C148.393 62.7 148.693 64.75 148.743 64.75H148.843C148.893 64.75 149.243 62.7 149.743 61.3L155.893 44.2H160.993L151.643 69.5H146.043Z" fill="black"/>
<path d="M163.091 62.4C163.091 54.05 174.091 53.7 178.341 53.7H179.441V53.25C179.441 49.1 177.091 47.7 173.891 47.7C169.991 47.7 166.841 50.15 166.841 50.15L164.841 46.6C164.841 46.6 168.491 43.6 174.291 43.6C180.691 43.6 184.291 47.1 184.291 53.5V69.5H179.791V67.1C179.791 65.95 179.891 65.1 179.891 65.1H179.791C179.791 65.1 177.741 70.1 171.691 70.1C167.341 70.1 163.091 67.45 163.091 62.4ZM167.991 62.15C167.991 64.2 169.591 66.2 172.741 66.2C176.841 66.2 179.491 61.9 179.491 58.15V57.35H178.241C174.591 57.35 167.991 57.6 167.991 62.15Z" fill="black"/>
</svg>
