<svg width="182" height="135" viewBox="0 0 182 135" fill="none" xmlns="http://www.w3.org/2000/svg">
<path d="M55.1673 45C55.1673 58.8071 43.9744 70 30.1673 70C16.3602 70 5.1673 58.8071 5.1673 45C5.1673 31.1929 16.3602 20 30.1673 20C43.9744 20 55.1673 31.1929 55.1673 45Z" fill="#FFBB33"/>
<path fill-rule="evenodd" clip-rule="evenodd" d="M30.1673 73C45.6313 73 58.1673 60.464 58.1673 45C58.1673 29.536 45.6313 17 30.1673 17C14.7033 17 2.1673 29.536 2.1673 45C2.1673 60.464 14.7033 73 30.1673 73ZM30.1673 75C46.7358 75 60.1673 61.5685 60.1673 45C60.1673 28.4315 46.7358 15 30.1673 15C13.5988 15 0.167297 28.4315 0.167297 45C0.167297 61.5685 13.5988 75 30.1673 75Z" fill="#0066F9"/>
<path d="M40.1673 105C40.1673 110.523 35.6901 115 30.1673 115C24.6444 115 20.1673 110.523 20.1673 105C20.1673 99.4771 24.6444 95 30.1673 95C35.6901 95 40.1673 99.4771 40.1673 105Z" fill="#0066F9"/>
<path fill-rule="evenodd" clip-rule="evenodd" d="M30.1673 118C37.347 118 43.1673 112.18 43.1673 105C43.1673 97.8203 37.347 92 30.1673 92C22.9876 92 17.1673 97.8203 17.1673 105C17.1673 112.18 22.9876 118 30.1673 118ZM30.1673 120C38.4516 120 45.1673 113.284 45.1673 105C45.1673 96.7157 38.4516 90 30.1673 90C21.883 90 15.1673 96.7157 15.1673 105C15.1673 113.284 21.883 120 30.1673 120Z" fill="#F8B735"/>
<path d="M20.1673 79.5C20.1673 80.8807 19.048 82 17.6673 82C16.2866 82 15.1673 80.8807 15.1673 79.5C15.1673 78.1193 16.2866 77 17.6673 77C19.048 77 20.1673 78.1193 20.1673 79.5Z" fill="#F8B735"/>
<path d="M45.1673 79.5C45.1673 80.8807 44.048 82 42.6673 82C41.2866 82 40.1673 80.8807 40.1673 79.5C40.1673 78.1193 41.2866 77 42.6673 77C44.048 77 45.1673 78.1193 45.1673 79.5Z" fill="#F8B735"/>
<path d="M32.1673 84.5C32.1673 85.8807 31.048 87 29.6673 87C28.2866 87 27.1673 85.8807 27.1673 84.5C27.1673 83.1193 28.2866 82 29.6673 82C31.048 82 32.1673 83.1193 32.1673 84.5Z" fill="#F8B735"/>
<path d="M108.23 51.6445V82.9258H104.062L88.3138 58.7988V82.9258H84.1673V51.6445H88.3138L104.126 75.8359V51.6445H108.23Z" fill="#F9F9F9"/>
<path d="M114.803 71.5605V71.0664C114.803 69.3906 115.047 67.8366 115.534 66.4043C116.021 64.9577 116.722 63.7044 117.639 62.6445C118.556 61.5703 119.666 60.7396 120.969 60.1523C122.273 59.5508 123.733 59.25 125.352 59.25C126.985 59.25 128.453 59.5508 129.756 60.1523C131.074 60.7396 132.191 61.5703 133.108 62.6445C134.039 63.7044 134.748 64.9577 135.235 66.4043C135.722 67.8366 135.965 69.3906 135.965 71.0664V71.5605C135.965 73.2363 135.722 74.7904 135.235 76.2227C134.748 77.6549 134.039 78.9082 133.108 79.9824C132.191 81.0423 131.081 81.873 129.778 82.4746C128.489 83.0618 127.028 83.3555 125.395 83.3555C123.762 83.3555 122.294 83.0618 120.991 82.4746C119.687 81.873 118.57 81.0423 117.639 79.9824C116.722 78.9082 116.021 77.6549 115.534 76.2227C115.047 74.7904 114.803 73.2363 114.803 71.5605ZM118.778 71.0664V71.5605C118.778 72.7207 118.914 73.8164 119.186 74.8477C119.458 75.8646 119.866 76.7669 120.411 77.5547C120.969 78.3424 121.664 78.9655 122.495 79.4238C123.325 79.8678 124.292 80.0898 125.395 80.0898C126.483 80.0898 127.436 79.8678 128.252 79.4238C129.083 78.9655 129.771 78.3424 130.315 77.5547C130.859 76.7669 131.267 75.8646 131.539 74.8477C131.826 73.8164 131.969 72.7207 131.969 71.5605V71.0664C131.969 69.9206 131.826 68.8392 131.539 67.8223C131.267 66.791 130.852 65.8815 130.293 65.0938C129.749 64.2917 129.062 63.6615 128.231 63.2031C127.414 62.7448 126.455 62.5156 125.352 62.5156C124.263 62.5156 123.304 62.7448 122.473 63.2031C121.657 63.6615 120.969 64.2917 120.411 65.0938C119.866 65.8815 119.458 66.791 119.186 67.8223C118.914 68.8392 118.778 69.9206 118.778 71.0664Z" fill="#F9F9F9"/>
<path d="M148.554 79.3379L154.914 59.6797H158.974L150.617 82.9258H147.953L148.554 79.3379ZM143.248 59.6797L149.8 79.4453L150.252 82.9258H147.587L139.166 59.6797H143.248Z" fill="#F9F9F9"/>
<path d="M177.042 78.9512V66.9844C177.042 66.0677 176.855 65.2728 176.483 64.5996C176.125 63.9121 175.581 63.3822 174.85 63.0098C174.12 62.6374 173.217 62.4512 172.143 62.4512C171.141 62.4512 170.26 62.623 169.501 62.9668C168.756 63.3105 168.169 63.7617 167.739 64.3203C167.324 64.8789 167.116 65.4805 167.116 66.125H163.141C163.141 65.2943 163.356 64.4707 163.786 63.6543C164.215 62.8379 164.831 62.1003 165.633 61.4414C166.45 60.7682 167.424 60.2383 168.555 59.8516C169.701 59.4505 170.976 59.25 172.38 59.25C174.07 59.25 175.559 59.5365 176.848 60.1094C178.152 60.6823 179.169 61.5488 179.899 62.709C180.644 63.8548 181.016 65.2943 181.016 67.0273V77.8555C181.016 78.6289 181.081 79.4525 181.21 80.3262C181.353 81.1999 181.561 81.9518 181.833 82.582V82.9258H177.686C177.486 82.4674 177.328 81.8587 177.214 81.0996C177.099 80.3262 177.042 79.61 177.042 78.9512ZM177.729 68.832L177.772 71.625H173.755C172.623 71.625 171.613 71.7181 170.725 71.9043C169.837 72.0762 169.092 72.3411 168.491 72.6992C167.889 73.0573 167.431 73.5085 167.116 74.0527C166.801 74.5827 166.643 75.2057 166.643 75.9219C166.643 76.6523 166.808 77.3184 167.137 77.9199C167.467 78.5215 167.961 79.0013 168.62 79.3594C169.293 79.7031 170.117 79.875 171.09 79.875C172.308 79.875 173.382 79.6172 174.313 79.1016C175.244 78.5859 175.982 77.9557 176.526 77.2109C177.085 76.4661 177.385 75.7428 177.428 75.041L179.126 76.9531C179.025 77.5547 178.753 78.2207 178.309 78.9512C177.865 79.6816 177.271 80.3835 176.526 81.0566C175.796 81.7155 174.922 82.2669 173.905 82.7109C172.902 83.1406 171.771 83.3555 170.51 83.3555C168.935 83.3555 167.553 83.0475 166.364 82.4316C165.189 81.8158 164.273 80.9922 163.614 79.9609C162.969 78.9154 162.647 77.748 162.647 76.459C162.647 75.2129 162.891 74.1172 163.378 73.1719C163.865 72.2122 164.566 71.4173 165.483 70.7871C166.4 70.1426 167.503 69.6556 168.792 69.3262C170.081 68.9967 171.52 68.832 173.11 68.832H177.729Z" fill="#F9F9F9"/>
</svg>
