<?xml version="1.0" encoding="UTF-8" standalone="no"?>
<!-- Created with Inkscape (http://www.inkscape.org/) -->

<svg
   version="1.1"
   id="svg2"
   width="1044"
   height="216.69333"
   viewBox="0 0 1044 216.69333"
   sodipodi:docname="NEORIS logo light (vector).eps"
   xmlns:inkscape="http://www.inkscape.org/namespaces/inkscape"
   xmlns:sodipodi="http://sodipodi.sourceforge.net/DTD/sodipodi-0.dtd"
   xmlns="http://www.w3.org/2000/svg"
   xmlns:svg="http://www.w3.org/2000/svg">
  <defs
     id="defs6" />
  <sodipodi:namedview
     id="namedview4"
     pagecolor="#ffffff"
     bordercolor="#000000"
     borderopacity="0.25"
     inkscape:showpageshadow="2"
     inkscape:pageopacity="0.0"
     inkscape:pagecheckerboard="0"
     inkscape:deskcolor="#d1d1d1" />
  <g
     id="g8"
     inkscape:groupmode="layer"
     inkscape:label="ink_ext_XXXXXX"
     transform="matrix(1.3333333,0,0,-1.3333333,0,216.69333)">
    <g
       id="g10"
       transform="scale(0.1)">
      <path
         d="m 5909.41,54.5391 h 184.12 V 1578.14 H 5909.41 V 54.5391"
         style="fill:#e7e6e8;fill-opacity:1;fill-rule:nonzero;stroke:none"
         id="path12" />
      <path
         d="M 1125.85,437.691 96.7148,1575.29 l -2.4375,2.85 H 0 V 54.5391 H 193.305 V 1190.06 L 1222.15,57.3203 l 2.57,-2.7812 h 90.02 V 1578.14 H 1125.85 V 437.691"
         style="fill:#e7e6e8;fill-opacity:1;fill-rule:nonzero;stroke:none"
         id="path14" />
      <path
         d="m 3516.89,1625.17 c -448.15,0 -812.59,-364.69 -812.59,-812.787 0,-447.895 364.44,-812.3712812 812.59,-812.3712812 448.06,0 812.5,364.4762812 812.5,812.3712812 0,448.097 -364.44,812.787 -812.5,812.787 m 0,-1437.889 c -344.82,0 -625.37,280.469 -625.37,625.102 0,344.957 280.55,625.587 625.37,625.587 344.56,0 625.23,-280.63 625.23,-625.587 0,-344.633 -280.67,-625.102 -625.23,-625.102"
         style="fill:#e7e6e8;fill-opacity:1;fill-rule:nonzero;stroke:none"
         id="path16" />
      <path
         d="M 7718.62,790.898 C 7616.15,904.695 7484.9,928.559 7393,928.559 h -558.46 c -96.52,0 -155.05,39.074 -187,71.981 -41.39,42.51 -64.15,99.62 -64.15,160.79 0,110.57 78.54,229.73 251.34,229.73 h 781.36 v 185.77 h -781.36 c -165.31,0 -267.56,-70.6 -324.13,-129.95 -72.91,-76.31 -112.93,-177.82 -112.93,-285.55 0,-109.77 41.29,-212.904 116.71,-290.275 56.57,-58.614 158.48,-128.301 320.35,-128.301 H 7393 c 172.61,0 251.21,-128.606 251.21,-248.176 0,-66.699 -23.31,-129.008 -65.82,-175.226 C 7532.01,269.051 7469.72,243.699 7393,243.699 H 6507.16 V 57.7813 H 7393 c 162.75,0 265.06,73.8667 321.9,135.6677 74.23,80.539 115.1,187.539 115.1,301.129 0,111.66 -39.69,216.906 -111.38,296.32"
         style="fill:#e7e6e8;fill-opacity:1;fill-rule:nonzero;stroke:none"
         id="path18" />
      <path
         d="m 2561.44,1393.55 2.55,4 c 36.51,59.33 78.82,115.42 125.39,166.66 l 12.76,13.93 H 1618.95 V 54.5391 h 1076.04 l -12.31,13.8515 C 2637.67,118.75 2596.85,173.359 2561.97,230.672 l -2.51,3.937 h -740.92 l 3.1,507.899 h 579.01 l -0.41,8.633 c -1.14,20.754 -1.55,41.382 -1.55,61.242 0,32.242 1.41,65.488 4.32,99.144 l 0.67,8.996 h -584.89 v 473.027 h 742.65"
         style="fill:#e7e6e8;fill-opacity:1;fill-rule:nonzero;stroke:none"
         id="path20" />
      <path
         d="m 5195.03,744.383 c 145.99,7.578 239.26,72.578 292.24,126.871 75.16,77.512 116.73,180.306 116.73,290.076 0,107.53 -40.13,208.76 -112.81,284.93 -56.48,59.28 -158.48,129.84 -323.67,129.84 h -836.57 l 12.45,-13.72 c 46.62,-51.83 88.74,-107.85 124.76,-166.81 l 2.56,-3.98 h 696.8 c 172.98,0 251.76,-119.49 251.76,-230.26 0,-61.17 -22.7,-118.41 -64.21,-161.28 -32.1,-32.894 -90.56,-72.085 -187.55,-72.085 h -540.96 l 0.88,-9.074 c 3.26,-35.621 5.03,-71.434 5.03,-106.508 0,-20.285 -0.43,-40.567 -1.55,-60.012 l -0.43,-8.797 h 340.84 l 443.79,-685.324 2.43,-3.7109 h 212.08 l -411.08,650.8399 -23.52,39.004"
         style="fill:#e7e6e8;fill-opacity:1;fill-rule:nonzero;stroke:none"
         id="path22" />
    </g>
  </g>
</svg>
