<svg width="450" height="145" viewBox="0 0 450 145" fill="none" xmlns="http://www.w3.org/2000/svg">
<path d="M0.2 142V0.799994H19.8L82.6 92.6C87.8 100.2 94.4 113 94.4 113H94.8C94.8 113 93.4 100.4 93.4 92.6V0.799994H113.2V142H93.8L30.8 50.4C25.6 42.6 19 29.8 19 29.8H18.6C18.6 29.8 20 42.4 20 50.4V142H0.2ZM140.167 91.2C140.167 60.6 164.567 38.4 194.767 38.4C224.967 38.4 249.367 60.6 249.367 91.2C249.367 122 224.967 144.4 194.767 144.4C164.567 144.4 140.167 122 140.167 91.2ZM159.967 91.2C159.967 112.4 175.767 127.6 194.767 127.6C213.967 127.6 229.567 112.4 229.567 91.2C229.567 70.2 213.967 55.2 194.767 55.2C175.767 55.2 159.967 70.2 159.967 91.2ZM296.372 142L258.572 40.8H279.172L303.772 109.2C305.772 114.8 306.972 123 307.172 123H307.572C307.772 123 309.172 114.8 311.172 109.2L335.772 40.8H356.172L318.772 142H296.372ZM364.563 113.6C364.563 80.2 408.563 78.8 425.563 78.8H429.963V77C429.963 60.4 420.563 54.8 407.763 54.8C392.163 54.8 379.563 64.6 379.563 64.6L371.563 50.4C371.563 50.4 386.163 38.4 409.363 38.4C434.963 38.4 449.363 52.4 449.363 78V142H431.363V132.4C431.363 127.8 431.763 124.4 431.763 124.4H431.363C431.363 124.4 423.163 144.4 398.963 144.4C381.563 144.4 364.563 133.8 364.563 113.6ZM384.163 112.6C384.163 120.8 390.563 128.8 403.163 128.8C419.563 128.8 430.163 111.6 430.163 96.6V93.4H425.163C410.563 93.4 384.163 94.4 384.163 112.6Z" fill="url(#paint0_linear_405_2)"/>
<defs>
<linearGradient id="paint0_linear_405_2" x1="-19" y1="48.5" x2="511" y2="48.5" gradientUnits="userSpaceOnUse">
<stop stop-color="#89D2E6"/>
<stop offset="1" stop-color="#F6CE3C"/>
</linearGradient>
</defs>
</svg>
