<?xml version="1.0" encoding="UTF-8" standalone="no"?>
<!-- Created with Inkscape (http://www.inkscape.org/) -->

<svg
   version="1.1"
   id="svg2"
   width="2666.6667"
   height="2666.6667"
   viewBox="0 0 2666.6667 2666.6667"
   sodipodi:docname="Pattern full light.eps"
   xmlns:inkscape="http://www.inkscape.org/namespaces/inkscape"
   xmlns:sodipodi="http://sodipodi.sourceforge.net/DTD/sodipodi-0.dtd"
   xmlns="http://www.w3.org/2000/svg"
   xmlns:svg="http://www.w3.org/2000/svg">
  <defs
     id="defs6" />
  <sodipodi:namedview
     id="namedview4"
     pagecolor="#ffffff"
     bordercolor="#000000"
     borderopacity="0.25"
     inkscape:showpageshadow="2"
     inkscape:pageopacity="0.0"
     inkscape:pagecheckerboard="0"
     inkscape:deskcolor="#d1d1d1" />
  <g
     id="g8"
     inkscape:groupmode="layer"
     inkscape:label="ink_ext_XXXXXX"
     transform="matrix(1.3333333,0,0,-1.3333333,0,2666.6667)">
    <g
       id="g10"
       transform="scale(0.1)">
      <path
         d="m 13511.8,5948.4 h 1558.9 l 779.5,1350.1 -779.5,1350 h -1558.9 l -779.4,-1350 z m 1559.7,-1.4 h -1560.6 l -0.1,0.3 -780.1,1351.2 0.2,0.3 780,1351.1 h 1560.6 l 0.2,-0.4 780.1,-1351 -0.2,-0.4 -780.1,-1351.1"
         style="fill:#f4f4f4;fill-opacity:1;fill-rule:nonzero;stroke:none"
         id="path12" />
      <path
         d="m 15851.4,4597.5 h 1558.9 l 779.4,1350.1 -779.4,1350.1 h -1558.9 l -779.5,-1350.1 z m 1559.7,-1.4 h -1560.6 l -0.2,0.3 -780.1,1351.2 0.2,0.3 780.2,1351.2 h 1560.5 l 0.2,-0.4 780.1,-1351.1 -0.2,-0.4 -780.1,-1351.1"
         style="fill:#f4f4f4;fill-opacity:1;fill-rule:nonzero;stroke:none"
         id="path14" />
      <path
         d="m 8832.84,3246.8 h 1558.96 l 779.4,1350.1 -779.4,1350.1 H 8832.84 L 8053.36,4596.9 Z m 1559.76,-1.4 H 8832.03 l -0.2,0.4 -780.09,1351.1 0.2,0.3 780.09,1351.2 h 1560.57 l 0.2,-0.4 780.1,-1351.1 -0.2,-0.4 -780.1,-1351.1"
         style="fill:#f4f4f4;fill-opacity:1;fill-rule:nonzero;stroke:none"
         id="path16" />
      <path
         d="m 8832.84,5948.4 h 1558.96 l 779.4,1350.1 -779.4,1350 H 8832.84 l -779.48,-1350 z M 10392.6,5947 H 8832.03 l -0.2,0.3 -780.09,1351.2 0.2,0.3 780.09,1351.1 h 1560.57 l 0.2,-0.4 780.1,-1351 -0.2,-0.4 -780.1,-1351.1"
         style="fill:#f4f4f4;fill-opacity:1;fill-rule:nonzero;stroke:none"
         id="path18" />
      <path
         d="m 8832.84,8649.9 h 1558.96 l 779.4,1350.1 -779.4,1350.1 H 8832.84 L 8053.36,10000 Z m 1559.76,-1.4 H 8832.03 l -0.2,0.3 -780.09,1351.2 0.2,0.4 780.09,1351.1 h 1560.57 l 0.2,-0.4 780.1,-1351.1 -0.2,-0.3 -780.1,-1351.2"
         style="fill:#f4f4f4;fill-opacity:1;fill-rule:nonzero;stroke:none"
         id="path20" />
      <path
         d="m 8832.84,11351.5 h 1558.96 l 779.4,1350 -779.4,1350.1 H 8832.84 l -779.48,-1350.1 z m 1559.76,-1.4 H 8832.03 l -0.2,0.3 -780.09,1351.1 0.2,0.4 780.09,1351.1 h 1560.57 l 0.2,-0.4 780.1,-1351.1 -0.2,-0.3 -780.1,-1351.1"
         style="fill:#f4f4f4;fill-opacity:1;fill-rule:nonzero;stroke:none"
         id="path22" />
      <path
         d="m 11172.1,4597.6 h 1559 l 779.5,1350.1 -779.5,1350.1 h -1559 l -779.4,-1350.1 z m 1559.8,-1.4 h -1560.6 l -0.2,0.3 -780,1351.2 0.2,0.3 780,1351.2 h 1560.6 l 0.2,-0.4 780.1,-1351.1 -0.2,-0.4 -780.1,-1351.1"
         style="fill:#f4f4f4;fill-opacity:1;fill-rule:nonzero;stroke:none"
         id="path24" />
      <path
         d="m 4154.71,11351.5 h 1558.92 l 779.46,1350 -779.46,1350.1 H 4154.71 l -779.48,-1350.1 z m 1559.73,-1.4 H 4153.9 l -0.21,0.3 -780.08,1351.1 0.2,0.4 780.09,1351.1 h 1560.54 l 0.21,-0.4 780.06,-1351.1 -0.21,-0.3 -780.06,-1351.1"
         style="fill:#f4f4f4;fill-opacity:1;fill-rule:nonzero;stroke:none"
         id="path26" />
      <path
         d="m 6493.28,7299.2 h 1558.95 l 779.45,1350 -779.45,1350.1 H 6493.31 L 5713.84,8649.2 Z m 1559.76,-1.4 H 6492.47 l -0.2,0.3 -780.05,1351.1 0.19,0.3 780.09,1351.2 h 1560.54 l 0.21,-0.3 780.05,-1351.2 -0.2,-0.4 -780.06,-1351"
         style="fill:#f4f4f4;fill-opacity:1;fill-rule:nonzero;stroke:none"
         id="path28" />
      <path
         d="m 6493.17,10000.7 h 1558.92 l 779.45,1350.1 -779.45,1350 H 6493.17 l -779.47,-1350 z m 1559.73,-1.4 H 6492.36 l -0.2,0.4 -780.09,1351.1 0.21,0.3 780.08,1351.1 H 8052.9 l 0.21,-0.3 780.05,-1351.1 -0.2,-0.4 -780.06,-1351.1"
         style="fill:#f4f4f4;fill-opacity:1;fill-rule:nonzero;stroke:none"
         id="path30" />
      <path
         d="m 6493.17,12702.2 h 1558.92 l 779.45,1350.1 -779.42,1350.1 H 6493.17 L 5713.7,14052.3 Z m 1559.73,-1.4 H 6492.36 l -0.2,0.4 -780.09,1351.1 0.21,0.3 780.08,1351.2 h 1560.57 l 0.2,-0.4 780.03,-1351.1 -0.2,-0.4 -780.06,-1351.1"
         style="fill:#f4f4f4;fill-opacity:1;fill-rule:nonzero;stroke:none"
         id="path32" />
      <path
         d="m 1816.09,12702.2 h 1558.93 l 779.45,1350.1 -779.44,1350.1 H 1816.09 l -779.47,-1350.1 z m 1559.74,-1.4 H 1815.28 l -0.2,0.4 -780.08,1351.1 0.2,0.3 780.08,1351.2 h 1560.56 l 0.2,-0.4 780.05,-1351.1 -0.19,-0.4 -780.07,-1351.1"
         style="fill:#f4f4f4;fill-opacity:1;fill-rule:nonzero;stroke:none"
         id="path34" />
      <path
         d="M 7265.25,3249.6 H 8820.92 L 9598.8,4596.9 8820.95,5944.2 H 7265.25 L 6487.4,4596.9 Z m 1559.74,-7 H 7261.18 l -1,1.8 -780.9,1352.5 1.01,1.7 780.89,1352.6 h 1563.83 l 1.02,-1.8 780.89,-1352.5 -1.01,-1.8 -780.92,-1352.5"
         style="fill:#f4f4f4;fill-opacity:1;fill-rule:nonzero;stroke:none"
         id="path36" />
      <path
         d="m 7265.25,5951.2 h 1555.7 L 9598.8,7298.5 8820.95,8645.7 H 7265.25 L 6487.4,7298.5 Z m 1559.76,-7 H 7261.18 l -1,1.7 -780.9,1352.6 1.01,1.7 780.89,1352.5 h 1563.83 l 1.02,-1.8 780.89,-1352.4 -1.01,-1.8 -780.9,-1352.5"
         style="fill:#f4f4f4;fill-opacity:1;fill-rule:nonzero;stroke:none"
         id="path38" />
      <path
         d="m 7265.45,8652.7 h 1555.7 L 9599,10000 8821.15,11347.2 H 7265.45 L 6487.62,10000 Z m 1559.76,-7 H 7261.38 l -1.01,1.7 -780.87,1352.6 1.02,1.8 780.86,1352.5 h 1563.83 l 1.02,-1.8 780.9,-1352.5 -1.02,-1.8 -780.9,-1352.5"
         style="fill:#f4f4f4;fill-opacity:1;fill-rule:nonzero;stroke:none"
         id="path40" />
      <path
         d="m 7265.45,11354.3 h 1555.7 l 777.85,1347.2 -777.85,1347.3 h -1555.7 l -777.83,-1347.3 z m 1559.76,-7.1 H 7261.38 l -1.01,1.8 -780.87,1352.5 1.02,1.8 780.86,1352.5 h 1563.83 l 1.02,-1.8 780.9,-1352.5 -1.02,-1.7 -780.9,-1352.6"
         style="fill:#f4f4f4;fill-opacity:1;fill-rule:nonzero;stroke:none"
         id="path42" />
      <path
         d="m 7265.45,14055.8 h 1555.7 L 9599,15403.1 8821.15,16750.4 H 7265.49 l -777.87,-1347.3 z m 1559.76,-7 H 7261.38 l -1.01,1.7 -780.87,1352.6 1.02,1.7 780.9,1352.6 h 1563.79 l 1.02,-1.8 780.9,-1352.5 -1.02,-1.8 -780.9,-1352.5"
         style="fill:#f4f4f4;fill-opacity:1;fill-rule:nonzero;stroke:none"
         id="path44" />
      <path
         d="m 2586.07,14055.8 h 1555.67 l 777.82,1347.3 -777.82,1347.3 H 2586.09 l -777.86,-1347.3 z m 1559.74,-7 h -1563.8 l -1.01,1.7 -780.89,1352.6 1.01,1.7 780.9,1352.6 h 1563.79 l 1.01,-1.8 780.87,-1352.5 -1.03,-1.8 -780.85,-1352.5"
         style="fill:#f4f4f4;fill-opacity:1;fill-rule:nonzero;stroke:none"
         id="path46" />
      <path
         d="m 9604.92,4600.4 h 1555.68 l 777.9,1347.3 -777.9,1347.2 H 9604.92 L 8827.07,5947.7 Z m 1559.78,-7 H 9600.85 l -1.01,1.7 -780.89,1352.6 1.01,1.7 780.89,1352.6 h 1563.85 l 1,-1.8 780.9,-1352.5 -1,-1.8 -780.9,-1352.5"
         style="fill:#f4f4f4;fill-opacity:1;fill-rule:nonzero;stroke:none"
         id="path48" />
      <path
         d="m 9604.92,7302 h 1555.68 l 777.9,1347.2 -777.9,1347.3 H 9604.92 L 8827.07,8649.2 Z m 1559.78,-7.1 H 9600.85 l -1.01,1.8 -780.89,1352.5 1.01,1.7 780.89,1352.6 h 1563.85 l 1,-1.7 780.9,-1352.6 -1,-1.8 -780.9,-1352.5"
         style="fill:#f4f4f4;fill-opacity:1;fill-rule:nonzero;stroke:none"
         id="path50" />
      <path
         d="m 9604.92,10003.5 h 1555.68 l 777.9,1347.3 -777.9,1347.2 H 9604.92 l -777.85,-1347.2 z m 1559.78,-7 H 9600.85 l -1.01,1.7 -780.89,1352.6 1.01,1.7 780.89,1352.5 h 1563.85 l 1,-1.7 780.9,-1352.5 -1,-1.8 -780.9,-1352.5"
         style="fill:#f4f4f4;fill-opacity:1;fill-rule:nonzero;stroke:none"
         id="path52" />
      <path
         d="m 4925.62,12705 h 1555.69 l 777.85,1347.3 -777.85,1347.3 H 4925.62 l -777.83,-1347.3 z m 1559.75,-7 H 4921.54 l -1,1.8 -780.86,1352.5 1.01,1.7 780.85,1352.6 h 1563.83 l 1.02,-1.8 780.89,-1352.5 -1.02,-1.8 -780.89,-1352.5"
         style="fill:#f4f4f4;fill-opacity:1;fill-rule:nonzero;stroke:none"
         id="path54" />
      <path
         d="m 4925.62,10003.5 h 1555.7 l 777.84,1347.3 -777.84,1347.2 H 4925.62 L 4147.8,11350.8 Z m 1559.77,-7 H 4921.54 l -1,1.7 -780.86,1352.6 1.01,1.7 780.85,1352.5 h 1563.85 l 1.01,-1.7 780.88,-1352.5 -1.02,-1.8 -780.87,-1352.5"
         style="fill:#f4f4f4;fill-opacity:1;fill-rule:nonzero;stroke:none"
         id="path56" />
      <path
         d="M 16623.3,5951.3 H 18179 l 777.9,1347.3 -777.9,1347.2 h -1555.7 l -777.8,-1347.2 z m 1559.8,-7 h -1563.8 l -1,1.7 -780.9,1352.6 1,1.8 780.9,1352.4 h 1563.8 l 1,-1.7 780.9,-1352.5 -1,-1.8 -780.9,-1352.5"
         style="fill:#f4f4f4;fill-opacity:1;fill-rule:nonzero;stroke:none"
         id="path58" />
      <path
         d="m 11944.6,5951.3 h 1555.7 l 777.8,1347.3 -777.8,1347.2 h -1555.7 l -777.9,-1347.2 z m 1559.7,-7 h -1563.8 l -1,1.7 -780.9,1352.6 1,1.8 780.9,1352.4 h 1563.8 l 1,-1.7 780.9,-1352.5 -1,-1.8 -780.9,-1352.5"
         style="fill:#f4f4f4;fill-opacity:1;fill-rule:nonzero;stroke:none"
         id="path60" />
      <path
         d="m 14284.2,4600.5 h 1555.7 l 777.8,1347.3 -777.8,1347.3 h -1555.7 l -777.8,-1347.3 z m 1559.8,-7 h -1563.8 l -1,1.8 -780.9,1352.5 1,1.8 780.9,1352.5 H 15844 l 1,-1.7 780.9,-1352.6 -1,-1.8 -780.9,-1352.5"
         style="fill:#f4f4f4;fill-opacity:1;fill-rule:nonzero;stroke:none"
         id="path62" />
    </g>
  </g>
</svg>
