<svg width="611" height="525" viewBox="0 0 611 525" fill="none" xmlns="http://www.w3.org/2000/svg">
<path d="M0 521.748V330.413H26.6465L112.024 454.808C119.094 465.106 128.067 482.451 128.067 482.451H128.61C128.61 482.451 126.707 465.377 126.707 454.808V330.413H153.625V521.748H127.251L41.6012 397.624C34.5317 387.054 25.5589 369.71 25.5589 369.71H25.0151C25.0151 369.71 26.9184 386.783 26.9184 397.624V521.748H0Z" fill="#0045AF"/>
<path d="M402.651 521.748L351.261 384.615H379.267L412.711 477.302C415.43 484.89 417.062 496.002 417.334 496.002H417.877C418.149 496.002 420.053 484.89 422.772 477.302L456.216 384.615H483.95L433.104 521.748H402.651Z" fill="#0045AF"/>
<path d="M495.357 483.264C495.357 438.005 555.176 436.108 578.288 436.108H584.27V433.669C584.27 411.175 571.49 403.586 554.088 403.586C532.88 403.586 515.75 416.866 515.75 416.866L504.874 397.624C504.874 397.624 524.723 381.363 556.264 381.363C591.067 381.363 610.644 400.334 610.644 435.024V521.748H586.173V508.739C586.173 502.506 586.717 497.899 586.717 497.899H586.173C586.173 497.899 575.025 525 542.125 525C518.469 525 495.357 510.636 495.357 483.264ZM522.004 481.909C522.004 493.02 530.705 503.861 547.834 503.861C570.131 503.861 584.541 480.554 584.541 460.228V455.892H577.744C557.895 455.892 522.004 457.247 522.004 481.909Z" fill="#0045AF"/>
<path d="M492.972 199.046C468.515 266.022 394.215 300.555 327.019 276.178C259.822 251.8 225.176 177.744 249.633 110.768C274.091 43.7916 348.39 9.25851 415.587 33.6358C482.783 58.0131 517.429 132.07 492.972 199.046Z" fill="#0045AF"/>
<path fill-rule="evenodd" clip-rule="evenodd" d="M321.704 290.73C396.964 318.033 480.18 279.356 507.572 204.342C534.965 129.329 496.16 46.3859 420.901 19.0833C345.641 -8.21927 262.425 30.4578 235.033 105.471C207.641 180.484 246.445 263.428 321.704 290.73ZM318.162 300.432C398.797 329.685 487.957 288.245 517.306 207.873C546.655 127.502 505.079 38.6344 424.443 9.38162C343.808 -19.8711 254.648 21.5686 225.299 101.94C195.95 182.311 237.526 271.179 318.162 300.432Z" fill="#0045AF"/>
<path d="M313.689 463.612C303.906 490.403 274.186 504.216 247.307 494.465C220.429 484.714 206.57 455.092 216.353 428.301C226.136 401.511 255.856 387.698 282.735 397.448C309.613 407.199 323.472 436.822 313.689 463.612Z" fill="#0045AF"/>
<path fill-rule="evenodd" clip-rule="evenodd" d="M241.993 509.018C276.935 521.694 315.571 503.737 328.289 468.909C341.007 434.082 322.991 395.572 288.049 382.896C253.107 370.22 214.471 388.177 201.753 423.005C189.035 457.832 207.051 496.342 241.993 509.018ZM238.45 518.719C278.768 533.346 323.348 512.626 338.023 472.44C352.697 432.255 331.909 387.821 291.591 373.194C251.274 358.568 206.694 379.288 192.019 419.473C177.345 459.659 198.133 504.093 238.45 518.719Z" fill="#0045AF"/>
<path d="M261.523 304.605C259.077 311.303 251.647 314.756 244.928 312.318C238.208 309.88 234.743 302.475 237.189 295.777C239.635 289.08 247.065 285.626 253.784 288.064C260.504 290.502 263.969 297.907 261.523 304.605Z" fill="#0045AF"/>
<path d="M383.192 348.744C380.747 355.442 373.317 358.895 366.597 356.457C359.877 354.019 356.413 346.614 358.858 339.916C361.304 333.219 368.734 329.765 375.454 332.203C382.173 334.641 385.638 342.046 383.192 348.744Z" fill="#0045AF"/>
<path d="M311.067 350.046C308.622 356.743 301.192 360.197 294.472 357.759C287.752 355.321 284.288 347.916 286.733 341.218C289.179 334.52 296.609 331.067 303.329 333.505C310.048 335.943 313.513 343.348 311.067 350.046Z" fill="#0045AF"/>
</svg>
