<svg width="609" height="195" viewBox="0 0 609 195" fill="none" xmlns="http://www.w3.org/2000/svg">
<path d="M0 191.748V0.41272H26.5593L111.657 124.808C118.704 135.106 127.647 152.451 127.647 152.451H128.189C128.189 152.451 126.292 135.377 126.292 124.808V0.41272H153.122V191.748H126.834L41.465 67.624C34.4186 57.0545 25.4752 39.7096 25.4752 39.7096H24.9332C24.9332 39.7096 26.8303 56.7834 26.8303 67.624V191.748H0Z" fill="black"/>
<path d="M401.332 191.748L350.111 54.6153H378.025L411.359 147.302C414.07 154.89 415.696 166.002 415.967 166.002H416.509C416.78 166.002 418.677 154.89 421.387 147.302L454.722 54.6153H482.365L431.685 191.748H401.332Z" fill="black"/>
<path d="M493.735 153.264C493.735 108.005 553.358 106.108 576.394 106.108H582.356V103.669C582.356 81.1746 569.618 73.5862 552.273 73.5862C531.134 73.5862 514.061 86.8659 514.061 86.8659L503.22 67.624C503.22 67.624 523.004 51.3632 554.442 51.3632C589.131 51.3632 608.644 70.3341 608.644 105.024V191.748H584.253V178.739C584.253 172.506 584.795 167.899 584.795 167.899H584.253C584.253 167.899 573.142 195 540.349 195C516.771 195 493.735 180.636 493.735 153.264ZM520.294 151.909C520.294 163.021 528.966 173.861 546.04 173.861C568.263 173.861 582.627 150.554 582.627 130.228V125.892H575.852C556.068 125.892 520.294 127.247 520.294 151.909Z" fill="black"/>
<path d="M312.661 133.612C302.91 160.403 273.288 174.216 246.497 164.465C219.707 154.714 205.894 125.092 215.645 98.3013C225.395 71.5108 255.018 57.6976 281.809 67.4485C308.599 77.1994 322.412 106.822 312.661 133.612Z" fill="#0045AF"/>
<path fill-rule="evenodd" clip-rule="evenodd" d="M241.201 179.018C276.028 191.694 314.538 173.737 327.214 138.909C339.89 104.082 321.933 65.5722 287.105 52.896C252.278 40.2198 213.768 58.177 201.092 93.0046C188.416 127.832 206.373 166.342 241.201 179.018ZM237.67 188.719C277.855 203.346 322.289 182.626 336.915 142.44C351.542 102.255 330.822 57.8207 290.636 43.1943C250.451 28.568 206.017 49.2878 191.39 89.4734C176.764 129.659 197.484 174.093 237.67 188.719Z" fill="#FFBB33"/>
</svg>
