<svg width="300" height="525" viewBox="0 0 300 525" fill="none" xmlns="http://www.w3.org/2000/svg">
<path d="M275 150C275 219.036 219.036 275 150 275C80.9644 275 25 219.036 25 150C25 80.9644 80.9644 25 150 25C219.036 25 275 80.9644 275 150Z" fill="#0045AF"/>
<path fill-rule="evenodd" clip-rule="evenodd" d="M150 290C227.32 290 290 227.32 290 150C290 72.6801 227.32 10 150 10C72.6801 10 10 72.6801 10 150C10 227.32 72.6801 290 150 290ZM150 300C232.843 300 300 232.843 300 150C300 67.1573 232.843 0 150 0C67.1573 0 0 67.1573 0 150C0 232.843 67.1573 300 150 300Z" fill="#0045AF"/>
<path d="M200 450C200 477.614 177.614 500 150 500C122.386 500 100 477.614 100 450C100 422.386 122.386 400 150 400C177.614 400 200 422.386 200 450Z" fill="#0045AF"/>
<path fill-rule="evenodd" clip-rule="evenodd" d="M150 515C185.899 515 215 485.899 215 450C215 414.101 185.899 385 150 385C114.101 385 85 414.101 85 450C85 485.899 114.101 515 150 515ZM150 525C191.421 525 225 491.421 225 450C225 408.579 191.421 375 150 375C108.579 375 75 408.579 75 450C75 491.421 108.579 525 150 525Z" fill="#0045AF"/>
<path d="M100 322.5C100 329.404 94.4036 335 87.5 335C80.5964 335 75 329.404 75 322.5C75 315.596 80.5964 310 87.5 310C94.4036 310 100 315.596 100 322.5Z" fill="#0045AF"/>
<path d="M225 322.5C225 329.404 219.404 335 212.5 335C205.596 335 200 329.404 200 322.5C200 315.596 205.596 310 212.5 310C219.404 310 225 315.596 225 322.5Z" fill="#0045AF"/>
<path d="M160 347.5C160 354.404 154.404 360 147.5 360C140.596 360 135 354.404 135 347.5C135 340.596 140.596 335 147.5 335C154.404 335 160 340.596 160 347.5Z" fill="#0045AF"/>
</svg>
