<svg width="329" height="508" viewBox="0 0 329 508" fill="none" xmlns="http://www.w3.org/2000/svg">
<path d="M295.673 193.009C272.061 257.882 200.331 291.33 135.459 267.718C70.5867 244.107 37.1383 172.377 60.7498 107.504C84.3614 42.6322 156.092 9.18377 220.964 32.7953C285.836 56.4069 319.285 128.137 295.673 193.009Z" fill="#FFBB33"/>
<path fill-rule="evenodd" clip-rule="evenodd" d="M130.329 281.814C202.986 308.259 283.323 270.797 309.768 198.14C336.213 125.483 298.751 45.1449 226.094 18.6999C153.437 -7.745 73.0994 29.7172 46.6545 102.374C20.2095 175.031 57.6717 255.369 130.329 281.814ZM126.908 291.211C204.755 319.545 290.831 279.407 319.165 201.56C347.499 123.713 307.361 37.6369 229.514 9.30302C151.668 -19.0309 65.5914 21.1072 37.2575 98.9539C8.92365 176.801 49.0617 262.877 126.908 291.211Z" fill="#0045AF"/>
<path d="M122.59 449.266C113.145 475.215 84.4533 488.594 58.5044 479.149C32.5555 469.705 19.1761 441.013 28.6207 415.064C38.0654 389.115 66.7575 375.735 92.7064 385.18C118.655 394.625 132.035 423.317 122.59 449.266Z" fill="#0045AF"/>
<path fill-rule="evenodd" clip-rule="evenodd" d="M53.3741 493.245C87.1076 505.523 124.407 488.13 136.685 454.396C148.963 420.662 131.57 383.363 97.8367 371.085C64.1031 358.807 26.8034 376.2 14.5254 409.933C2.24735 443.667 19.6405 480.967 53.3741 493.245ZM49.9539 502.642C88.8772 516.809 131.915 496.74 146.082 457.816C160.249 418.893 140.18 375.855 101.257 361.688C62.3335 347.521 19.2954 367.59 5.12843 406.513C-9.0385 445.437 11.0305 488.475 49.9539 502.642Z" fill="#FFBB33"/>
<path d="M72.2283 295.253C69.8672 301.74 62.6941 305.085 56.2069 302.724C49.7197 300.363 46.3748 293.19 48.736 286.702C51.0972 280.215 58.2702 276.87 64.7574 279.231C71.2446 281.593 74.5895 288.766 72.2283 295.253Z" fill="#FFBB33"/>
<path d="M189.69 338.005C187.329 344.493 180.156 347.837 173.668 345.476C167.181 343.115 163.836 335.942 166.198 329.455C168.559 322.968 175.732 319.623 182.219 321.984C188.706 324.345 192.051 331.518 189.69 338.005Z" fill="#FFBB33"/>
<path d="M120.059 339.266C117.698 345.754 110.525 349.098 104.038 346.737C97.5507 344.376 94.2059 337.203 96.567 330.716C98.9282 324.229 106.101 320.884 112.588 323.245C119.076 325.606 122.421 332.779 120.059 339.266Z" fill="#FFBB33"/>
</svg>
